<svg width="22" height="22" viewBox="0 0 22 22" fill="none" xmlns="http://www.w3.org/2000/svg">
<rect width="22" height="22" rx="11" fill="#ffffff"/>
<path d="M10.9187 4H10.5926C10.4419 4.01101 10.2988 4.06924 10.184 4.16619C10.0692 4.26315 9.98883 4.39376 9.9545 4.539C9.91957 4.68389 9.93237 4.83601 9.99102 4.97323C10.0497 5.11045 10.1511 5.22562 10.2806 5.302C10.9122 5.67178 11.4344 6.19865 11.7952 6.83C12.156 7.46136 12.3427 8.17511 12.3367 8.9C12.3356 9.71591 12.0937 10.5138 11.6407 11.1962C11.1877 11.8786 10.5433 12.416 9.786 12.7427C9.02874 13.0694 8.1915 13.1712 7.37657 13.0358C6.56165 12.9003 5.80432 12.5335 5.19713 11.98C5.08435 11.8743 4.93951 11.8081 4.7849 11.7917C4.6303 11.7753 4.47451 11.8095 4.34152 11.889C4.20854 11.9686 4.10574 12.0891 4.04896 12.2321C3.99218 12.375 3.98456 12.5324 4.02729 12.68C4.3462 13.9536 5.0212 15.1131 5.97532 16.0262C6.92944 16.9393 8.12426 17.5693 9.42352 17.8444C10.7228 18.1195 12.0742 18.0285 13.3236 17.5819C14.5731 17.1353 15.6702 16.351 16.49 15.3185C17.3098 14.2859 17.8191 13.0467 17.96 11.7422C18.1009 10.4377 17.8677 9.12028 17.2868 7.94031C16.706 6.76033 15.801 5.76526 14.6751 5.06856C13.5491 4.37187 12.2475 4.00161 10.9187 4Z" fill="black"/>
</svg>
