<svg width="22" height="22" viewBox="0 0 22 22" fill="none" xmlns="http://www.w3.org/2000/svg">
<rect width="22" height="22" rx="11" fill="black"/>
<path fill-rule="evenodd" clip-rule="evenodd" d="M13.3708 10.9999C13.3708 12.3093 12.3093 13.3708 10.9999 13.3708C9.69047 13.3708 8.62891 12.3093 8.62891 10.9999C8.62891 9.69047 9.69047 8.62891 10.9999 8.62891C12.3093 8.62891 13.3708 9.69047 13.3708 10.9999Z" stroke="white" stroke-width="1.35484" stroke-linecap="round" stroke-linejoin="round"/>
<path d="M17.3226 11.6774C17.6967 11.6774 18 11.3741 18 11C18 10.6259 17.6967 10.3226 17.3226 10.3226V11.6774ZM15.7419 10.3226C15.3678 10.3226 15.0645 10.6259 15.0645 11C15.0645 11.3741 15.3678 11.6774 15.7419 11.6774V10.3226ZM6.25806 11.6774C6.63219 11.6774 6.93548 11.3741 6.93548 11C6.93548 10.6259 6.63219 10.3226 6.25806 10.3226V11.6774ZM4.67742 10.3226C4.30329 10.3226 4 10.6259 4 11C4 11.3741 4.30329 11.6774 4.67742 11.6774V10.3226ZM11.6774 4.67742C11.6774 4.30329 11.3741 4 11 4C10.6259 4 10.3226 4.30329 10.3226 4.67742H11.6774ZM10.3226 6.25806C10.3226 6.63219 10.6259 6.93548 11 6.93548C11.3741 6.93548 11.6774 6.63219 11.6774 6.25806H10.3226ZM11.6774 15.7419C11.6774 15.3678 11.3741 15.0645 11 15.0645C10.6259 15.0645 10.3226 15.3678 10.3226 15.7419H11.6774ZM10.3226 17.3226C10.3226 17.6967 10.6259 18 11 18C11.3741 18 11.6774 17.6967 11.6774 17.3226H10.3226ZM15.9499 7.00804C16.2145 6.74349 16.2145 6.31457 15.9499 6.05002C15.6854 5.78548 15.2565 5.78548 14.992 6.05002L15.9499 7.00804ZM13.8738 7.16822C13.6092 7.43276 13.6092 7.86169 13.8738 8.12623C14.1383 8.39078 14.5672 8.39078 14.8318 8.12623L13.8738 7.16822ZM8.12623 14.8318C8.39078 14.5672 8.39078 14.1383 8.12623 13.8738C7.86169 13.6092 7.43276 13.6092 7.16822 13.8738L8.12623 14.8318ZM6.05002 14.992C5.78548 15.2565 5.78548 15.6854 6.05002 15.9499C6.31457 16.2145 6.74349 16.2145 7.00804 15.9499L6.05002 14.992ZM7.00804 6.05002C6.74349 5.78548 6.31457 5.78548 6.05002 6.05002C5.78548 6.31457 5.78548 6.74349 6.05002 7.00804L7.00804 6.05002ZM7.16822 8.12623C7.43276 8.39078 7.86169 8.39078 8.12623 8.12623C8.39078 7.86169 8.39078 7.43276 8.12623 7.16822L7.16822 8.12623ZM14.8327 13.8747C14.5681 13.6101 14.1393 13.6101 13.8747 13.8747C13.6101 14.1393 13.6101 14.5681 13.8747 14.8327L14.8327 13.8747ZM14.992 15.9499C15.2565 16.2145 15.6854 16.2145 15.9499 15.9499C16.2145 15.6854 16.2145 15.2565 15.9499 14.992L14.992 15.9499ZM17.3226 10.3226H15.7419V11.6774H17.3226V10.3226ZM6.25806 10.3226H4.67742V11.6774H6.25806V10.3226ZM10.3226 4.67742V6.25806H11.6774V4.67742H10.3226ZM10.3226 15.7419V17.3226H11.6774V15.7419H10.3226ZM14.992 6.05002L13.8738 7.16822L14.8318 8.12623L15.9499 7.00804L14.992 6.05002ZM7.16822 13.8738L6.05002 14.992L7.00804 15.9499L8.12623 14.8318L7.16822 13.8738ZM6.05002 7.00804L7.16822 8.12623L8.12623 7.16822L7.00804 6.05002L6.05002 7.00804ZM13.8747 14.8327L14.992 15.9499L15.9499 14.992L14.8327 13.8747L13.8747 14.8327Z" fill="white"/>
</svg>
